<?xml version="1.0" standalone="no"?>
<!DOCTYPE svg PUBLIC "-//W3C//DTD SVG 20010904//EN"
 "http://www.w3.org/TR/2001/REC-SVG-20010904/DTD/svg10.dtd">
<svg version="1.0" xmlns="http://www.w3.org/2000/svg"
 width="500.000000pt" height="500.000000pt" viewBox="0 0 500.000000 500.000000"
 preserveAspectRatio="xMidYMid meet">
<metadata>
Created by potrace 1.14, written by Peter Selinger 2001-2017
</metadata>
<g transform="translate(0.000000,500.000000) scale(0.100000,-0.100000)"
fill="#000000" stroke="none">
<path d="M2230 4985 c-106 -13 -130 -17 -230 -36 -89 -17 -92 -17 -201 -50
-296 -87 -565 -225 -829 -423 -108 -81 -329 -297 -412 -401 -198 -252 -372
-577 -448 -840 -26 -93 -59 -223 -65 -260 -4 -22 -9 -52 -11 -66 -22 -124 -31
-269 -29 -444 3 -201 13 -300 49 -480 51 -253 187 -592 322 -805 198 -311 469
-585 774 -782 327 -212 709 -345 1110 -387 85 -9 463 -7 510 2 14 3 75 13 135
22 61 9 128 21 150 27 22 5 50 12 62 14 40 8 256 80 338 114 143 59 407 204
485 267 8 6 39 30 68 51 414 307 747 790 891 1292 76 267 97 426 94 735 -1
228 -20 384 -65 554 -11 42 -25 96 -30 121 -6 25 -14 50 -18 55 -4 6 -11 24
-15 42 -10 49 -100 256 -160 370 -44 83 -149 251 -187 298 -4 5 -38 48 -75 95
-69 89 -284 307 -350 357 -21 15 -47 36 -58 46 -54 50 -297 201 -416 259 -134
66 -307 138 -332 138 -7 0 -17 4 -22 9 -6 5 -64 22 -130 39 -116 29 -145 35
-230 47 -22 4 -69 11 -105 17 -97 16 -448 17 -570 3z"/>
</g>
</svg>
